# xmcd
#
# Track frame offsets: 
#        150
#        16998
#        36573
#        61791
#        76209
#        91059
#        109014
#        123594
#        141036
#        155508
#
# Disc length: 2263 seconds
#
# Revision: 0
# Processed by: cddbd v1.5.2PL0 Copyright (c) Steve Scherf et al.
# Submitted via: ExactAudioCopy v1.0b3
#
DISCID=7808d50a
DTITLE=Various Artist - Xuan Hop Mat
DYEAR=1994
DGENRE=
TTITLE0=Ngoc Minh - Xuan hop mat
TTITLE1=Huong Lan - Ngay Xuan tai ngo
TTITLE2=Mai Ngoc Khanh - Hoa buom ngay xua
TTITLE3=Quang Binh - Dau Xuan linh chuc
TTITLE4=Mai Huong - Khuc hat thanh Xuan
TTITLE5=Mai Ngoc Khanh - Xuan mien Nam
TTITLE6=Ngoc Minh - Ngay Xuan tham nhau
TTITLE7=Huong Lan - Neu Xuan nay hoa binh
TTITLE8=Thuy Huong - Bai ca Xuan
TTITLE9=Mai Huong - Xuan va tuoi tre
EXTD=
EXTT0=
EXTT1=
EXTT2=
EXTT3=
EXTT4=
EXTT5=
EXTT6=
EXTT7=
EXTT8=
EXTT9=
PLAYORDER=
